Coordinates
version=1
nRows=14
nColumns=42
inDegrees=yes

Units are S.I. units (second, meters, Newtons, ...)
If the header above contains a line with 'inDegrees', this indicates whether rotational values are in degrees (yes) or radians (no).

endheader
time	pelvis_tilt	pelvis_list	pelvis_rotation	pelvis_tx	pelvis_ty	pelvis_tz	hip_flexion_r	hip_adduction_r	hip_rotation_r	knee_angle_r	knee_adduction_r	knee_angle_r_beta	ankle_angle_r	subtalar_angle_r	mtp_angle_r	hip_flexion_l	hip_adduction_l	hip_rotation_l	knee_angle_l	knee_adduction_l	knee_angle_l_beta	ankle_angle_l	subtalar_angle_l	mtp_angle_l	lumbar_extension	lumbar_bending	lumbar_rotation	arm_flex_r	arm_add_r	arm_rot_r	elbow_flex_r	pro_sup_r	wrist_flex_r	wrist_dev_r	arm_flex_l	arm_add_l	arm_rot_l	elbow_flex_l	pro_sup_l	wrist_flex_l	wrist_dev_l
      6.00000000	      7.79090113	     -4.01087298	     -5.64112888	      0.51206864	      0.95192930	     -0.15210337	      5.93767600	     -9.78979561	    -15.59700866	     38.02824726	      5.11621340	      0.66371812	      6.08533984	      3.59863900	     -7.50330851	     -2.62125054	     -3.26372117	    -21.81838851	     23.11479650	      2.72303863	      0.40342930	     17.19509260	      2.62872796	     -7.50330851	    -17.89378314	      1.20968412	     -0.27250013	      7.10700335	     -7.41540997	      1.02492826	     36.84060696	     90.00000001	      0.00000000	      0.00000000	    -14.13327556	    -10.85468589	     -2.83454174	     48.82242807	     90.00000001	      0.00000000	      0.00000000
      6.01000000	      7.92428178	     -4.23476709	     -5.67299996	      0.51334942	      0.95229178	     -0.15175039	      5.94103057	     -9.42862459	    -15.85734858	     36.66400875	      5.19790622	      0.63990767	      6.35765011	      4.91611801	     -7.50323739	     -2.93664840	     -3.57224275	    -21.62832115	     23.10547872	      2.97581417	      0.40326668	     17.22322015	      2.24128085	     -7.50323739	    -18.14421475	      1.35155257	     -0.14685591	      7.17737591	     -7.27893673	      0.40981885	     36.48002531	     90.00000001	      0.00000000	      0.00000000	    -14.02536858	    -10.79313663	     -2.87436424	     48.67056795	     90.00000001	      0.00000000	      0.00000000
      6.02000000	      7.87797347	     -4.26595292	     -5.69307641	      0.51464309	      0.95221388	     -0.15164096	      6.27184499	     -9.31733312	    -16.33835177	     35.51691485	      5.16289521	      0.61988710	      6.61343816	      6.41396665	     -7.50309377	     -3.01605506	     -3.56267134	    -21.40266411	     23.00716536	      3.02547811	      0.40155079	     17.21692475	      1.86261754	     -7.50309377	    -18.15989766	      1.33241032	     -0.11107417	      7.17052890	     -7.21576745	     -0.05436998	     36.26637247	     90.00000001	      0.00000000	      0.00000000	    -14.00242958	    -10.76500893	     -2.88377026	     48.64500907	     90.00000001	      0.00000000	      0.00000000
      6.03000000	      7.73611230	     -4.23621782	     -5.81945570	      0.51580122	      0.95191651	     -0.15136816	      6.75950834	     -9.28695090	    -16.26524636	     34.41675122	      5.50215308	      0.60068563	      6.65824335	      7.01077084	     -7.50305975	     -2.92023770	     -3.48596369	    -21.35679174	     23.04340258	      2.96204572	      0.40218325	     17.31700327	      1.74755729	     -7.50305975	    -18.07751921	      1.23488745	     -0.02297845	      7.14170136	     -7.24322912	     -0.09175309	     36.14933170	     90.00000001	      0.00000000	      0.00000000	    -14.00898502	    -10.74366243	     -2.86996209	     48.60260754	     90.00000001	      0.00000000	      0.00000000
      6.04000000	      7.61674916	     -4.22948297	     -5.93329390	      0.51694704	      0.95166992	     -0.15109450	      7.19963575	     -9.21253998	    -16.26020606	     33.26767440	      5.79159692	      0.58063045	      6.67415501	      7.74443562	     -7.50303096	     -2.85277367	     -3.46631783	    -21.32424558	     23.09839840	      2.95976674	      0.40314310	     17.41461113	      1.60838397	     -7.50303096	    -18.03042403	      1.16726824	      0.06795143	      7.12642727	     -7.27529322	     -0.17070764	     36.03089649	     90.00000001	      0.00000000	      0.00000000	    -13.97893782	    -10.69983596	     -2.86224944	     48.53365900	     90.00000001	      0.00000000	      0.00000000
      6.05000000	      7.51974692	     -4.27691158	     -6.02311432	      0.51811350	      0.95143599	     -0.15081568	      7.55682362	     -9.07653987	    -16.32271476	     32.04083591	      6.08936649	      0.55921808	      6.64637283	      8.79297218	     -7.50299877	     -2.80858796	     -3.52483369	    -21.28643085	     23.18315873	      2.97761971	      0.40462245	     17.52225796	      1.41480334	     -7.50299877	    -18.01347498	      1.17369919	      0.15519420	      7.12818530	     -7.29647589	     -0.30110123	     35.89996348	     90.00000001	      0.00000000	      0.00000000	    -13.91561032	    -10.65230802	     -2.86354177	     48.41016472	     90.00000001	      0.00000000	      0.00000000
      6.06000000	      7.42750851	     -4.31219139	     -6.10001112	      0.51929439	      0.95120753	     -0.15048986	      7.90780722	     -8.93865065	    -16.52124106	     30.84096023	      6.31607148	      0.53827630	      6.57731537	      9.99738927	     -7.50296512	     -2.76432034	     -3.58146732	    -21.23998767	     23.27802985	      3.00512455	      0.40627826	     17.62835282	      1.22382385	     -7.50296512	    -18.00386171	      1.15824603	      0.22821030	      7.12405924	     -7.31359021	     -0.44929814	     35.79291331	     90.00000001	      0.00000000	      0.00000000	    -13.84352368	    -10.59053158	     -2.86632889	     48.28192504	     90.00000001	      0.00000000	      0.00000000
      6.07000000	      7.47286693	     -4.38228522	     -6.08438746	      0.52071683	      0.95111117	     -0.15026167	      8.12306221	     -8.78299930	    -17.60694682	     29.82311495	      6.06648007	      0.52051155	      6.72896343	     12.56569140	     -7.50283204	     -2.91447352	     -3.70722794	    -21.09456305	     23.34955569	      3.15510456	      0.40752663	     17.70673983	      0.97963220	     -7.50283204	    -18.12598782	      1.19797543	      0.23446053	      7.12856530	     -7.29453718	     -0.78429813	     35.70249130	     90.00000001	      0.00000000	      0.00000000	    -13.76371098	    -10.52081530	     -2.89534415	     48.15415881	     90.00000001	      0.00000000	      0.00000000
      6.08000000	      7.29961763	     -4.28163453	     -6.19957837	      0.52185267	      0.95062845	     -0.14989860	      8.63517769	     -8.82715691	    -17.66247761	     28.83630141	      6.45025628	      0.50328840	      6.51889983	     13.29249737	     -7.50280512	     -2.75051901	     -3.57646523	    -21.09509441	     23.42817816	      3.07781501	      0.40889885	     17.81879528	      0.88673924	     -7.50280512	    -18.01345363	      1.04852101	      0.29587761	      7.11264332	     -7.33256965	     -0.78506066	     35.64545694	     90.00000001	      0.00000000	      0.00000000	    -13.71033960	    -10.50298832	     -2.87843240	     48.08427814	     90.00000001	      0.00000000	      0.00000000
      6.09000000	      7.26294301	     -4.33772058	     -6.22277695	      0.52314472	      0.95037148	     -0.14957334	      8.91549292	     -8.66994841	    -18.27972111	     27.84641210	      6.53131994	      0.48601158	      6.28279248	     14.88313547	     -7.50273574	     -2.74370926	     -3.71394503	    -21.10479058	     23.62944791	      3.16927993	      0.41241167	     17.96250866	      0.68456217	     -7.50273574	    -18.05942251	      1.08146241	      0.33501535	      7.10705547	     -7.37296674	     -0.88889622	     35.59860611	     90.00000001	      0.00000000	      0.00000000	    -13.56900494	    -10.43529741	     -2.87096977	     47.86863006	     90.00000001	      0.00000000	      0.00000000
      6.10000000	      7.12186993	     -4.25936746	     -6.31574518	      0.52443884	      0.94987344	     -0.14922473	      9.36074429	     -8.70298946	    -18.60249260	     27.00190544	      6.84711406	      0.47127215	      5.97751384	     15.83078597	     -7.50270063	     -2.63154855	     -3.61075087	    -21.07333152	     23.70244107	      3.09994528	      0.41368564	     18.08442508	      0.62139352	     -7.50270063	    -17.96952276	      0.97937362	      0.37547277	      7.09724346	     -7.41887718	     -0.91759304	     35.57254722	     90.00000001	      0.00000000	      0.00000000	    -13.53163780	    -10.39793337	     -2.85658103	     47.79181086	     90.00000001	      0.00000000	      0.00000000
      6.11000000	      7.01286676	     -4.19590588	     -6.36454838	      0.52577413	      0.94942171	     -0.14888202	      9.73598812	     -8.69003531	    -19.07678835	     26.19184999	      7.05639312	      0.45713402	      5.58741980	     16.86359527	     -7.50266746	     -2.53962473	     -3.56192945	    -21.06108507	     23.82928797	      3.08836815	      0.41589953	     18.22349892	      0.52877719	     -7.50266746	    -17.91541135	      0.90115316	      0.40830241	      7.06980228	     -7.44837456	     -0.95049719	     35.54913635	     90.00000001	      0.00000000	      0.00000000	    -13.43452548	    -10.35815469	     -2.83981986	     47.66084795	     90.00000001	      0.00000000	      0.00000000
      6.12000000	      7.00351212	     -4.13213824	     -6.51591066	      0.52705645	      0.94900787	     -0.14829622	     10.18804582	     -8.67328891	    -19.40045318	     25.89945199	      7.25422597	      0.45203071	      5.57026478	     16.91779349	     -7.50266145	     -2.63255481	     -3.50815475	    -21.09375201	     23.85966404	      3.13121085	      0.41642970	     18.26243306	      0.52101696	     -7.50266145	    -17.98905960	      0.78311655	      0.46491897	      7.15146252	     -7.49326887	     -0.95212184	     35.57642597	     90.00000001	      0.00000000	      0.00000000	    -13.40597547	    -10.34292768	     -2.83266319	     47.65850996	     90.00000001	      0.00000000	      0.00000000
      6.13000000	      6.95612306	     -4.14337962	     -6.34866349	      0.52882067	      0.94864761	     -0.14820069	     10.28295940	     -8.56947279	    -20.68667507	     25.02717937	      7.13558458	      0.43680668	      4.82073654	     19.31822067	     -7.50258826	     -2.58393522	     -3.60286665	    -20.98353644	     24.09982253	      3.17682541	      0.42062125	     18.52114019	      0.38410384	     -7.50258826	    -17.95040302	      0.84602432	      0.37717714	      7.03780328	     -7.55974659	     -1.05951265	     35.56238327	     90.00000001	      0.00000000	      0.00000000	    -13.22754146	    -10.27691011	     -2.79378753	     47.36522646	     90.00000001	      0.00000000	      0.00000000
